<svg viewBox="0 0 520 160" fill="none" xmlns="http://www.w3.org/2000/svg">
  <rect width="520" height="160" fill="none"/>
  <rect x="28" y="32" width="96" height="96" rx="24" fill="#C5F43F"/>
  <path d="M52 82h10.5" stroke="#08080A" stroke-width="6" stroke-linecap="round"/>
  <path d="M45 93h16" stroke="#08080A" stroke-width="6" stroke-linecap="round"/>
  <path d="M40 80h7" stroke="#08080A" stroke-width="6" stroke-linecap="round"/>
  <path d="M45 68h24" stroke="#08080A" stroke-width="6" stroke-linecap="round"/>
  <path d="M63 89h9.2m0 0h26.6m-26.6 0c1.9-9 9-16 18.7-16h7.4c6 0 10.9 3.9 14 8.9L117 89H98.8m-26.6 0A13.6 13.6 0 0 0 59 102.6M98.8 89A13.6 13.6 0 0 1 112 102.6" stroke="#08080A" stroke-width="6" stroke-linecap="round" stroke-linejoin="round"/>
  <circle cx="59" cy="102" r="9" stroke="#08080A" stroke-width="6"/>
  <circle cx="112" cy="102" r="9" stroke="#08080A" stroke-width="6"/>
  <path d="M157 38v84" stroke="white" stroke-opacity=".22"/>
  <text x="188" y="72" fill="white" font-family="Space Grotesk, Manrope, Arial, sans-serif" font-size="52" font-weight="700" letter-spacing="-2.6">Auto</text>
  <text x="188" y="122" fill="#C5F43F" font-family="Space Grotesk, Manrope, Arial, sans-serif" font-size="52" font-weight="700" letter-spacing="-2.6">Showroom</text>
</svg>
