<svg width="614" height="621" viewBox="0 0 614 621" fill="none" xmlns="http://www.w3.org/2000/svg">
<rect x="1" y="1" width="612" height="619" rx="147" fill="#C1E135" stroke="#DBFB40" stroke-width="2"/>
<mask id="path-2-inside-1_789_119" fill="white">
<path d="M208.5 330C235.286 330 257 351.714 257 378.5C257 405.286 235.286 427 208.5 427C181.714 427 160 405.286 160 378.5C160 351.714 181.714 330 208.5 330ZM208.5 354C194.969 354 184 364.969 184 378.5C184 392.031 194.969 403 208.5 403C222.031 403 233 392.031 233 378.5C233 364.969 222.031 354 208.5 354Z"/>
</mask>
<path d="M208.5 330C235.286 330 257 351.714 257 378.5C257 405.286 235.286 427 208.5 427C181.714 427 160 405.286 160 378.5C160 351.714 181.714 330 208.5 330ZM208.5 354C194.969 354 184 364.969 184 378.5C184 392.031 194.969 403 208.5 403C222.031 403 233 392.031 233 378.5C233 364.969 222.031 354 208.5 354Z" fill="black"/>
<path d="M208.5 330V332C234.181 332 255 352.819 255 378.5H257H259C259 350.61 236.39 328 208.5 328V330ZM257 378.5H255C255 404.181 234.181 425 208.5 425V427V429C236.39 429 259 406.39 259 378.5H257ZM208.5 427V425C182.819 425 162 404.181 162 378.5H160H158C158 406.39 180.61 429 208.5 429V427ZM160 378.5H162C162 352.819 182.819 332 208.5 332V330V328C180.61 328 158 350.61 158 378.5H160ZM208.5 354V352C193.864 352 182 363.864 182 378.5H184H186C186 366.074 196.074 356 208.5 356V354ZM184 378.5H182C182 393.136 193.864 405 208.5 405V403V401C196.074 401 186 390.926 186 378.5H184ZM208.5 403V405C223.136 405 235 393.136 235 378.5H233H231C231 390.926 220.926 401 208.5 401V403ZM233 378.5H235C235 363.864 223.136 352 208.5 352V354V356C220.926 356 231 366.074 231 378.5H233Z" fill="#DBFB40" mask="url(#path-2-inside-1_789_119)"/>
<mask id="path-4-inside-2_789_119" fill="white">
<path d="M474.5 330C501.286 330 523 351.714 523 378.5C523 405.286 501.286 427 474.5 427C447.714 427 426 405.286 426 378.5C426 351.714 447.714 330 474.5 330ZM474.5 354C460.969 354 450 364.969 450 378.5C450 392.031 460.969 403 474.5 403C488.031 403 499 392.031 499 378.5C499 364.969 488.031 354 474.5 354Z"/>
</mask>
<path d="M474.5 330C501.286 330 523 351.714 523 378.5C523 405.286 501.286 427 474.5 427C447.714 427 426 405.286 426 378.5C426 351.714 447.714 330 474.5 330ZM474.5 354C460.969 354 450 364.969 450 378.5C450 392.031 460.969 403 474.5 403C488.031 403 499 392.031 499 378.5C499 364.969 488.031 354 474.5 354Z" fill="black"/>
<path d="M474.5 330V332C500.181 332 521 352.819 521 378.5H523H525C525 350.61 502.39 328 474.5 328V330ZM523 378.5H521C521 404.181 500.181 425 474.5 425V427V429C502.39 429 525 406.39 525 378.5H523ZM474.5 427V425C448.819 425 428 404.181 428 378.5H426H424C424 406.39 446.61 429 474.5 429V427ZM426 378.5H428C428 352.819 448.819 332 474.5 332V330V328C446.61 328 424 350.61 424 378.5H426ZM474.5 354V352C459.864 352 448 363.864 448 378.5H450H452C452 366.074 462.074 356 474.5 356V354ZM450 378.5H448C448 393.136 459.864 405 474.5 405V403V401C462.074 401 452 390.926 452 378.5H450ZM474.5 403V405C489.136 405 501 393.136 501 378.5H499H497C497 390.926 486.926 401 474.5 401V403ZM499 378.5H501C501 363.864 489.136 352 474.5 352V354V356C486.926 356 497 366.074 497 378.5H499Z" fill="#DBFB40" mask="url(#path-4-inside-2_789_119)"/>
<path d="M345.002 219.5L345.001 219.501C350.016 219.501 359.205 221.729 373.347 230.654C387.447 239.554 406.538 255.153 431.426 281.99C452.736 281.519 485.555 282.902 514.833 290.306C544.224 297.738 570.499 311.356 577.462 335.726L577.5 335.86V385.5H535.345C535.776 382.562 536 379.557 536 376.5C536 342.535 508.465 315 474.5 315C440.534 315 413 342.534 413 376.5C413 379.557 413.224 382.562 413.654 385.5H269.47L269.439 385.498L269.346 385.492C269.776 382.557 270 379.555 270 376.5C270 342.535 242.465 315 208.5 315C174.534 315 147 342.534 147 376.5C147 377.043 147.007 377.584 147.021 378.123L144.972 378H70.4688L70.4375 377.998L70.5 377L70.4365 377.998H70.4307L70.3916 377.994C70.3688 377.992 70.338 377.989 70.3008 377.985C70.2256 377.977 70.1211 377.964 69.9932 377.942C69.7373 377.9 69.382 377.826 68.9609 377.699C68.1196 377.445 67.0019 376.973 65.8848 376.101C63.6079 374.322 61.501 371.011 61.501 365C61.501 358.989 63.6079 355.678 65.8848 353.899C67.0019 353.027 68.1196 352.555 68.9609 352.301C69.382 352.174 69.7373 352.1 69.9932 352.058C70.1211 352.036 70.2256 352.023 70.3008 352.015C70.338 352.011 70.3688 352.008 70.3916 352.006L70.4307 352.002H70.4365C70.4374 352.005 70.4412 352.06 70.5 353L70.4375 352.002L70.4688 352H114.834C114.845 351.996 114.858 351.991 114.871 351.986C114.985 351.942 115.16 351.865 115.376 351.746C115.808 351.507 116.403 351.097 117.006 350.426C118.195 349.101 119.5 346.661 119.5 342.25C119.5 337.839 118.195 335.399 117.006 334.074C116.403 333.403 115.808 332.993 115.376 332.754C115.16 332.635 114.985 332.558 114.871 332.514C114.858 332.509 114.845 332.504 114.834 332.5H70.3145L70.1406 332.434L70.5 331.5L70.1396 332.433H70.1387C70.1378 332.432 70.1359 332.431 70.1348 332.431C70.1326 332.43 70.1297 332.429 70.127 332.428C70.1208 332.425 70.1127 332.422 70.1035 332.418C70.0849 332.41 70.0596 332.4 70.0293 332.387C69.9684 332.36 69.8842 332.323 69.7813 332.272C69.5749 332.172 69.2894 332.019 68.9521 331.808C68.2781 331.384 67.3903 330.717 66.5059 329.73C64.721 327.74 63.001 324.503 63.001 319.5C63.001 314.497 64.721 311.26 66.5059 309.27C67.3903 308.283 68.2781 307.616 68.9521 307.192C69.2894 306.981 69.5749 306.828 69.7813 306.728C69.8842 306.677 69.9684 306.64 70.0293 306.613C70.0596 306.6 70.0849 306.59 70.1035 306.582C70.1127 306.578 70.1208 306.575 70.127 306.572C70.1297 306.571 70.1326 306.57 70.1348 306.569C70.1359 306.569 70.1378 306.568 70.1387 306.567H70.1396C70.1414 306.57 70.161 306.618 70.4473 307.362L70.1406 306.566L70.3145 306.5H133.953C133.959 306.499 133.966 306.499 133.974 306.498C134.013 306.494 134.076 306.485 134.16 306.472C134.33 306.444 134.583 306.393 134.89 306.303C135.506 306.121 136.329 305.785 137.15 305.169C138.747 303.971 140.5 301.594 140.5 296.75C140.5 291.906 138.747 289.529 137.15 288.331C136.329 287.715 135.506 287.379 134.89 287.197C134.583 287.107 134.33 287.056 134.16 287.028C134.076 287.015 134.013 287.006 133.974 287.002C133.967 287.001 133.96 287.001 133.954 287H50.3379L50.1836 286.948L50.5 286C50.2025 286.892 50.1842 286.945 50.1826 286.948H50.1816L50.1699 286.944C50.1636 286.942 50.1552 286.939 50.1455 286.936C50.1257 286.929 50.0986 286.919 50.0654 286.906C49.9986 286.881 49.9045 286.845 49.7891 286.796C49.558 286.699 49.2357 286.551 48.8535 286.345C48.09 285.933 47.076 285.282 46.0615 284.318C44.0138 282.373 42.0003 279.183 42 274.25C41.9998 269.317 44.0137 266.127 46.0615 264.182C47.0761 263.218 48.09 262.567 48.8535 262.155C49.2357 261.949 49.558 261.801 49.7891 261.704C49.9045 261.655 49.9986 261.619 50.0654 261.594C50.0986 261.581 50.1257 261.571 50.1455 261.564C50.1552 261.561 50.1636 261.558 50.1699 261.556L50.1816 261.552H50.1826C50.1842 261.555 50.2026 261.608 50.5 262.5L50.1836 261.552L50.3379 261.5H183.392C183.417 261.494 183.45 261.486 183.488 261.476C183.614 261.44 183.806 261.378 184.042 261.276C184.514 261.073 185.158 260.713 185.808 260.091C187.082 258.869 188.5 256.52 188.5 252C188.5 247.48 187.082 245.131 185.808 243.909C185.158 243.287 184.514 242.927 184.042 242.724C183.806 242.622 183.614 242.56 183.488 242.524C183.45 242.514 183.417 242.506 183.392 242.5H102.36L102.226 242.462L102.5 241.5C102.241 242.405 102.225 242.458 102.224 242.461H102.223L102.22 242.46C102.218 242.459 102.215 242.458 102.212 242.457C102.206 242.455 102.197 242.453 102.188 242.45C102.168 242.444 102.142 242.436 102.11 242.426C102.046 242.405 101.957 242.374 101.848 242.333C101.629 242.251 101.324 242.126 100.963 241.947C100.242 241.591 99.285 241.018 98.3271 240.146C96.3882 238.38 94.5 235.431 94.5 230.75C94.5 226.069 96.3882 223.12 98.3271 221.354C99.285 220.482 100.242 219.909 100.963 219.553C101.324 219.374 101.629 219.249 101.848 219.167C101.957 219.126 102.046 219.095 102.11 219.074C102.142 219.064 102.168 219.056 102.188 219.05C102.197 219.047 102.206 219.045 102.212 219.043C102.215 219.042 102.218 219.041 102.22 219.04L102.223 219.039H102.224C102.225 219.042 102.237 219.081 102.408 219.68L102.226 219.038L102.361 219H102.502L345.002 219.5ZM133.932 286.998H133.933V286.997C133.932 286.997 133.93 286.997 133.93 286.997L133.932 286.998ZM344.5 242.5C288.101 237.7 256.334 255.833 247.5 265.5C257.5 273.9 289 280.5 299.5 281C310.002 281.5 402.498 282 402.5 282C389 270 365 246 344.5 242.5Z" fill="black"/>
<path d="M345.002 219.5L345.709 220.207L347.411 218.505L345.004 218.5L345.002 219.5ZM345.001 219.501L344.294 218.794L342.587 220.501L345.001 220.501L345.001 219.501ZM373.347 230.654L373.88 229.809V229.809L373.347 230.654ZM431.426 281.99L430.693 282.67L430.998 283L431.448 282.99L431.426 281.99ZM514.833 290.306L515.078 289.336V289.336L514.833 290.306ZM577.462 335.726L578.424 335.454L578.423 335.451L577.462 335.726ZM577.5 335.86H578.5V335.722L578.462 335.588L577.5 335.86ZM577.5 385.5V386.5H578.5V385.5H577.5ZM535.345 385.5L534.355 385.355L534.187 386.5H535.345V385.5ZM474.5 315V314V314V315ZM413.654 385.5V386.5H414.812L414.644 385.355L413.654 385.5ZM269.47 385.5L269.405 386.498L269.438 386.5H269.47V385.5ZM269.439 385.498L269.504 384.5L269.502 384.5L269.439 385.498ZM269.346 385.492L268.356 385.347L268.199 386.422L269.283 386.49L269.346 385.492ZM208.5 315V314V314V315ZM147.021 378.123L146.961 379.121L148.048 379.187L148.02 378.097L147.021 378.123ZM144.972 378L145.032 377.002L145.002 377H144.972V378ZM70.4688 378L70.4064 378.998L70.4375 379H70.4688V378ZM70.4375 377.998L69.4395 377.936L69.3769 378.934L70.3751 378.996L70.4375 377.998ZM70.5 377L71.498 377.062L69.502 376.937L70.5 377ZM70.4365 377.998V378.998H71.3749L71.4345 378.062L70.4365 377.998ZM70.4307 377.998L70.3312 378.993L70.3808 378.998H70.4307V377.998ZM70.3916 377.994L70.4911 376.999L70.4775 376.998L70.3916 377.994ZM70.3008 377.985L70.191 378.979H70.1911L70.3008 377.985ZM69.9932 377.942L69.8301 378.929L69.8302 378.929L69.9932 377.942ZM68.9609 377.699L68.6717 378.656L68.6718 378.657L68.9609 377.699ZM65.8848 376.101L65.2691 376.889L65.2691 376.889L65.8848 376.101ZM65.8848 353.899L65.2691 353.111L65.2691 353.111L65.8848 353.899ZM68.9609 352.301L68.6718 351.343L68.6717 351.344L68.9609 352.301ZM69.9932 352.058L69.8302 351.071L69.8301 351.071L69.9932 352.058ZM70.3008 352.015L70.1911 351.021H70.191L70.3008 352.015ZM70.3916 352.006L70.4775 353.002L70.4911 353.001L70.3916 352.006ZM70.4307 352.002V351.002H70.3808L70.3312 351.007L70.4307 352.002ZM70.4365 352.002L71.3978 351.726L71.19 351.002H70.4365V352.002ZM70.5 353L69.502 353.062L71.4981 352.938L70.5 353ZM70.4375 352.002L70.3751 351.004L69.3769 351.066L69.4395 352.064L70.4375 352.002ZM70.4688 352V351H70.4375L70.4064 351.002L70.4688 352ZM114.834 352V353H115.016L115.186 352.936L114.834 352ZM114.871 351.986L115.237 352.917L115.237 352.917L114.871 351.986ZM115.376 351.746L115.86 352.621L115.86 352.621L115.376 351.746ZM117.006 350.426L117.75 351.094L117.75 351.094L117.006 350.426ZM117.006 334.074L117.75 333.406L117.75 333.406L117.006 334.074ZM115.376 332.754L115.86 331.879L115.86 331.879L115.376 332.754ZM114.871 332.514L115.237 331.583L115.237 331.583L114.871 332.514ZM114.834 332.5L115.186 331.564L115.016 331.5H114.834V332.5ZM70.3145 332.5L69.9576 333.434L70.1299 333.5H70.3145V332.5ZM70.1406 332.434L69.2074 332.074L68.8472 333.01L69.7838 333.368L70.1406 332.434ZM70.5 331.5L71.4332 331.859L69.5672 331.14L70.5 331.5ZM70.1396 332.433V333.433H70.8253L71.0724 332.793L70.1396 332.433ZM70.1387 332.433L69.7748 333.364L69.9503 333.433H70.1387V332.433ZM70.1348 332.431L70.5482 331.52L70.5235 331.509L70.4983 331.499L70.1348 332.431ZM70.127 332.428L69.7587 333.357L69.7626 333.359L70.127 332.428ZM70.1035 332.418L70.4826 331.493L70.4814 331.492L70.1035 332.418ZM70.0293 332.387L69.6316 333.304L69.6318 333.304L70.0293 332.387ZM69.7812 332.272L69.3419 333.171L69.342 333.171L69.7812 332.272ZM68.9521 331.808L68.4201 332.654L68.4202 332.654L68.9521 331.808ZM66.5059 329.73L65.7613 330.398L65.7613 330.398L66.5059 329.73ZM66.5059 309.27L65.7613 308.602L65.7613 308.602L66.5059 309.27ZM68.9521 307.192L68.4202 306.346L68.4201 306.346L68.9521 307.192ZM69.7812 306.728L69.342 305.829L69.3419 305.829L69.7812 306.728ZM70.0293 306.613L69.6318 305.696L69.6316 305.696L70.0293 306.613ZM70.1035 306.582L70.4814 307.508L70.4826 307.507L70.1035 306.582ZM70.127 306.572L69.7626 305.641L69.7587 305.643L70.127 306.572ZM70.1348 306.569L70.4983 307.501L70.5235 307.491L70.5482 307.48L70.1348 306.569ZM70.1387 306.567V305.567H69.9503L69.7748 305.636L70.1387 306.567ZM70.1396 306.567L70.9884 306.039L70.6948 305.567H70.1396V306.567ZM70.4473 307.362L69.5141 307.722L71.3806 307.003L70.4473 307.362ZM70.1406 306.566L69.7838 305.632L68.8469 305.99L69.2075 306.926L70.1406 306.566ZM70.3145 306.5V305.5H70.1299L69.9576 305.566L70.3145 306.5ZM133.953 306.5V307.5H134.003L134.053 307.495L133.953 306.5ZM133.974 306.498L134.085 307.492L134.086 307.492L133.974 306.498ZM134.16 306.472L134.322 307.458L134.322 307.458L134.16 306.472ZM134.89 306.303L135.172 307.262L135.172 307.262L134.89 306.303ZM137.15 305.169L137.75 305.969L137.75 305.969L137.15 305.169ZM137.15 288.331L137.75 287.531L137.75 287.531L137.15 288.331ZM134.89 287.197L135.172 286.238L135.172 286.238L134.89 287.197ZM134.16 287.028L134.322 286.042L134.322 286.042L134.16 287.028ZM133.974 287.002L134.086 286.008L134.085 286.008L133.974 287.002ZM133.954 287L134.056 286.005L134.005 286H133.954V287ZM50.3379 287L50.0199 287.948L50.1746 288H50.3379V287ZM50.1836 286.948L49.235 286.632L48.919 287.579L49.8656 287.896L50.1836 286.948ZM50.5 286L51.4487 286.316L49.5514 285.683L50.5 286ZM50.1826 286.948V287.948H50.7818L51.0644 287.42L50.1826 286.948ZM50.1816 286.948L49.8654 287.897L50.0194 287.948H50.1816V286.948ZM50.1699 286.944L49.8456 287.89L49.8537 287.893L50.1699 286.944ZM50.1455 286.936L50.4789 285.993L50.4787 285.993L50.1455 286.936ZM50.0654 286.906L49.7148 287.843H49.7148L50.0654 286.906ZM49.7891 286.796L49.4007 287.717L49.4007 287.717L49.7891 286.796ZM48.8535 286.345L48.3791 287.225L48.3791 287.225L48.8535 286.345ZM46.0615 284.318L45.3728 285.043L45.3728 285.043L46.0615 284.318ZM42 274.25L41 274.25V274.25L42 274.25ZM46.0615 264.182L45.3728 263.457L45.3728 263.457L46.0615 264.182ZM48.8535 262.155L48.3792 261.275L48.3791 261.275L48.8535 262.155ZM49.7891 261.704L49.4008 260.783L49.4007 260.783L49.7891 261.704ZM50.0654 261.594L49.7149 260.657L49.7148 260.657L50.0654 261.594ZM50.1455 261.564L50.4785 262.507L50.4789 262.507L50.1455 261.564ZM50.1699 261.556L49.8537 260.607L49.8456 260.61L50.1699 261.556ZM50.1816 261.552V260.552H50.0194L49.8654 260.603L50.1816 261.552ZM50.1826 261.552L51.064 261.079L50.7812 260.552H50.1826V261.552ZM50.5 262.5L49.5514 262.817L51.4487 262.184L50.5 262.5ZM50.1836 261.552L49.8656 260.604L48.919 260.921L49.235 261.868L50.1836 261.552ZM50.3379 261.5V260.5H50.1746L50.0199 260.552L50.3379 261.5ZM183.392 261.5V262.5H183.511L183.626 262.472L183.392 261.5ZM183.488 261.476L183.758 262.439L183.758 262.439L183.488 261.476ZM184.042 261.276L184.437 262.195L184.438 262.195L184.042 261.276ZM185.808 260.091L186.499 260.813L186.5 260.813L185.808 260.091ZM185.808 243.909L186.5 243.187L186.499 243.187L185.808 243.909ZM184.042 242.724L184.438 241.805L184.437 241.805L184.042 242.724ZM183.488 242.524L183.758 241.561L183.758 241.561L183.488 242.524ZM183.392 242.5L183.626 241.528L183.511 241.5H183.392V242.5ZM102.36 242.5L102.088 243.462L102.222 243.5H102.36V242.5ZM102.226 242.462L101.264 242.188L100.989 243.152L101.954 243.424L102.226 242.462ZM102.5 241.5L103.462 241.774L101.538 241.225L102.5 241.5ZM102.224 242.461V243.461H102.835L103.114 242.917L102.224 242.461ZM102.223 242.461L101.906 243.41L102.06 243.461H102.223V242.461ZM102.22 242.46L102.536 241.511L102.518 241.505L102.499 241.5L102.22 242.46ZM102.212 242.457L102.513 241.503L102.504 241.501L102.495 241.498L102.212 242.457ZM102.188 242.45L101.895 243.406L101.897 243.407L102.188 242.45ZM102.11 242.426L101.799 243.376L101.799 243.376L102.11 242.426ZM101.848 242.333L101.496 243.269L101.497 243.269L101.848 242.333ZM100.963 241.947L100.52 242.844L100.52 242.844L100.963 241.947ZM98.3271 240.146L97.6538 240.885L97.6539 240.885L98.3271 240.146ZM94.5 230.75H93.5V230.75H94.5ZM98.3271 221.354L97.6539 220.615L97.6538 220.615L98.3271 221.354ZM100.963 219.553L100.52 218.656L100.52 218.656L100.963 219.553ZM101.848 219.167L101.497 218.231L101.496 218.231L101.848 219.167ZM102.11 219.074L101.799 218.124L101.799 218.124L102.11 219.074ZM102.188 219.05L101.897 218.093L101.895 218.094L102.188 219.05ZM102.212 219.043L102.495 220.002L102.504 219.999L102.512 219.997L102.212 219.043ZM102.22 219.04L102.499 220L102.517 219.995L102.536 219.989L102.22 219.04ZM102.223 219.039V218.039H102.06L101.906 218.09L102.223 219.039ZM102.224 219.039L103.115 218.587L102.838 218.039H102.224V219.039ZM102.408 219.68L101.447 219.955L103.37 219.406L102.408 219.68ZM102.226 219.038L101.955 218.075L100.989 218.346L101.264 219.312L102.226 219.038ZM102.361 219V218H102.224L102.091 218.037L102.361 219ZM102.502 219L102.504 218H102.502V219ZM133.932 286.998L133.484 287.892L133.696 287.998H133.932V286.998ZM133.933 286.998V287.998H134.933V286.998H133.933ZM133.933 286.997H134.933V286.081L134.02 286.001L133.933 286.997ZM133.93 286.997L133.907 285.997L133.482 287.891L133.93 286.997ZM344.5 242.5L344.668 241.514L344.627 241.507L344.585 241.504L344.5 242.5ZM247.5 265.5L246.762 264.825L246.058 265.595L246.857 266.266L247.5 265.5ZM299.5 281L299.452 281.999H299.452L299.5 281ZM402.5 282L402.495 283L405.146 283.014L403.164 281.253L402.5 282ZM345.002 219.5L344.295 218.793L344.294 218.794L345.001 219.501L345.708 220.208L345.709 220.207L345.002 219.5ZM345.001 219.501L345.001 220.501C349.751 220.501 358.752 222.626 372.813 231.5L373.347 230.654L373.88 229.809C359.658 220.833 350.281 218.501 345.001 218.501L345.001 219.501ZM373.347 230.654L372.813 231.5C386.818 240.339 405.843 255.874 430.693 282.67L431.426 281.99L432.159 281.31C407.234 254.432 388.077 238.768 373.88 229.809L373.347 230.654ZM431.426 281.99L431.448 282.99C452.712 282.519 485.431 283.902 514.588 291.275L514.833 290.306L515.078 289.336C485.678 281.902 452.76 280.518 431.404 280.99L431.426 281.99ZM514.833 290.306L514.588 291.275C543.95 298.7 569.7 312.201 576.5 336L577.462 335.726L578.423 335.451C571.298 310.511 544.499 296.776 515.078 289.336L514.833 290.306ZM577.462 335.726L576.5 335.998L576.538 336.132L577.5 335.86L578.462 335.588L578.424 335.454L577.462 335.726ZM577.5 335.86H576.5V385.5H577.5H578.5V335.86H577.5ZM577.5 385.5V384.5H535.345V385.5V386.5H577.5V385.5ZM535.345 385.5L536.334 385.645C536.772 382.66 537 379.606 537 376.5H536H535C535 379.508 534.779 382.465 534.355 385.355L535.345 385.5ZM536 376.5H537C537 341.982 509.018 314 474.5 314V315V316C507.913 316 535 343.087 535 376.5H536ZM474.5 315V314C439.982 314 412 341.982 412 376.5H413H414C414 343.087 441.087 316 474.5 316V315ZM413 376.5H412C412 379.606 412.227 382.66 412.665 385.645L413.654 385.5L414.644 385.355C414.22 382.465 414 379.508 414 376.5H413ZM413.654 385.5V384.5H269.47V385.5V386.5H413.654V385.5ZM269.47 385.5L269.534 384.502L269.504 384.5L269.439 385.498L269.375 386.496L269.405 386.498L269.47 385.5ZM269.439 385.498L269.502 384.5L269.408 384.494L269.346 385.492L269.283 386.49L269.377 386.496L269.439 385.498ZM269.346 385.492L270.335 385.637C270.772 382.654 271 379.604 271 376.5H270H269C269 379.506 268.779 382.46 268.356 385.347L269.346 385.492ZM270 376.5H271C271 341.982 243.018 314 208.5 314V315V316C241.913 316 269 343.087 269 376.5H270ZM208.5 315V314C173.982 314 146 341.982 146 376.5H147H148C148 343.087 175.087 316 208.5 316V315ZM147 376.5H146C146 377.051 146.007 377.6 146.021 378.149L147.021 378.123L148.02 378.097C148.006 377.567 148 377.035 148 376.5H147ZM147.021 378.123L147.08 377.125L145.032 377.002L144.972 378L144.912 378.998L146.961 379.121L147.021 378.123ZM144.972 378V377H70.4688V378V379H144.972V378ZM70.4688 378L70.5311 377.002L70.4999 377L70.4375 377.998L70.3751 378.996L70.4064 378.998L70.4688 378ZM70.4375 377.998L71.4355 378.061L71.498 377.062L70.5 377L69.502 376.938L69.4395 377.936L70.4375 377.998ZM70.5 377L69.502 376.937L69.4385 377.935L70.4365 377.998L71.4345 378.062L71.498 377.063L70.5 377ZM70.4365 377.998V376.998H70.4307V377.998V378.998H70.4365V377.998ZM70.4307 377.998L70.5302 377.003L70.4911 376.999L70.3916 377.994L70.2921 378.989L70.3312 378.993L70.4307 377.998ZM70.3916 377.994L70.4775 376.998C70.457 376.996 70.4357 376.994 70.4105 376.991L70.3008 377.985L70.1911 378.979C70.2403 378.985 70.2805 378.988 70.3057 378.99L70.3916 377.994ZM70.3008 377.985L70.4106 376.991C70.3524 376.985 70.2656 376.974 70.1561 376.956L69.9932 377.942L69.8302 378.929C69.9765 378.953 70.0988 378.969 70.191 378.979L70.3008 377.985ZM69.9932 377.942L70.1562 376.956C69.9375 376.92 69.6248 376.855 69.2501 376.742L68.9609 377.699L68.6718 378.657C69.1392 378.798 69.5371 378.881 69.8301 378.929L69.9932 377.942ZM68.9609 377.699L69.2501 376.742C68.5002 376.515 67.5001 376.094 66.5004 375.313L65.8848 376.101L65.2691 376.889C66.5036 377.853 67.739 378.375 68.6717 378.656L68.9609 377.699ZM65.8848 376.101L66.5004 375.313C64.5008 373.75 62.501 370.75 62.501 365H61.501H60.501C60.501 371.272 62.7151 374.893 65.2691 376.889L65.8848 376.101ZM61.501 365H62.501C62.501 359.25 64.5008 356.25 66.5004 354.687L65.8848 353.899L65.2691 353.111C62.7151 355.107 60.501 358.728 60.501 365H61.501ZM65.8848 353.899L66.5004 354.687C67.5001 353.906 68.5002 353.485 69.2501 353.258L68.9609 352.301L68.6717 351.344C67.739 351.625 66.5036 352.147 65.2691 353.111L65.8848 353.899ZM68.9609 352.301L69.2501 353.258C69.6248 353.145 69.9375 353.08 70.1562 353.044L69.9932 352.058L69.8301 351.071C69.5371 351.119 69.1392 351.202 68.6718 351.343L68.9609 352.301ZM69.9932 352.058L70.1561 353.044C70.2656 353.026 70.3524 353.015 70.4106 353.009L70.3008 352.015L70.191 351.021C70.0988 351.031 69.9765 351.047 69.8302 351.071L69.9932 352.058ZM70.3008 352.015L70.4105 353.009C70.4357 353.006 70.457 353.004 70.4775 353.002L70.3916 352.006L70.3057 351.01C70.2805 351.012 70.2403 351.015 70.1911 351.021L70.3008 352.015ZM70.3916 352.006L70.4911 353.001L70.5302 352.997L70.4307 352.002L70.3312 351.007L70.2921 351.011L70.3916 352.006ZM70.4307 352.002V353.002H70.4365V352.002V351.002H70.4307V352.002ZM70.4365 352.002L69.4753 352.278C69.4583 352.219 69.4508 352.171 69.4488 352.158C69.4458 352.139 69.444 352.124 69.4432 352.117C69.4416 352.103 69.4407 352.092 69.4406 352.091C69.4402 352.087 69.4403 352.086 69.4409 352.096C69.4421 352.113 69.4444 352.147 69.4486 352.213C69.457 352.344 69.4726 352.592 69.5019 353.062L70.5 353L71.4981 352.938C71.4687 352.468 71.453 352.218 71.4445 352.086C71.4403 352.02 71.4378 351.981 71.4362 351.958C71.4354 351.947 71.4346 351.935 71.4336 351.924C71.4332 351.919 71.4321 351.906 71.4303 351.89C71.4294 351.882 71.4275 351.866 71.4244 351.847C71.4223 351.833 71.4148 351.786 71.3978 351.726L70.4365 352.002ZM70.5 353L71.498 352.938L71.4355 351.939L70.4375 352.002L69.4395 352.064L69.502 353.062L70.5 353ZM70.4375 352.002L70.4999 353L70.5311 352.998L70.4688 352L70.4064 351.002L70.3751 351.004L70.4375 352.002ZM70.4688 352V353H114.834V352V351H70.4688V352ZM114.834 352L115.186 352.936C115.183 352.937 115.182 352.938 115.183 352.937C115.183 352.937 115.184 352.937 115.186 352.936C115.187 352.936 115.189 352.935 115.191 352.934C115.199 352.931 115.216 352.925 115.237 352.917L114.871 351.986L114.505 351.056C114.51 351.054 114.513 351.053 114.514 351.052C114.515 351.052 114.515 351.052 114.513 351.053C114.512 351.053 114.511 351.053 114.509 351.054C114.507 351.055 114.505 351.055 114.503 351.056C114.498 351.058 114.49 351.061 114.482 351.064L114.834 352ZM114.871 351.986L115.237 352.917C115.385 352.859 115.601 352.764 115.86 352.621L115.376 351.746L114.892 350.871C114.719 350.966 114.584 351.025 114.505 351.056L114.871 351.986ZM115.376 351.746L115.86 352.621C116.376 352.336 117.063 351.859 117.75 351.094L117.006 350.426L116.262 349.758C115.743 350.335 115.24 350.679 114.892 350.871L115.376 351.746ZM117.006 350.426L117.75 351.094C119.125 349.563 120.5 346.875 120.5 342.25H119.5H118.5C118.5 346.447 117.266 348.639 116.262 349.758L117.006 350.426ZM119.5 342.25H120.5C120.5 337.625 119.125 334.937 117.75 333.406L117.006 334.074L116.262 334.742C117.266 335.861 118.5 338.053 118.5 342.25H119.5ZM117.006 334.074L117.75 333.406C117.063 332.641 116.376 332.164 115.86 331.879L115.376 332.754L114.892 333.629C115.24 333.821 115.743 334.165 116.262 334.742L117.006 334.074ZM115.376 332.754L115.86 331.879C115.601 331.736 115.385 331.641 115.237 331.583L114.871 332.514L114.505 333.444C114.584 333.475 114.719 333.534 114.892 333.629L115.376 332.754ZM114.871 332.514L115.237 331.583C115.216 331.575 115.199 331.569 115.191 331.566C115.189 331.565 115.187 331.564 115.185 331.564C115.184 331.563 115.183 331.563 115.183 331.563C115.182 331.562 115.183 331.563 115.186 331.564L114.834 332.5L114.482 333.436C114.49 333.439 114.498 333.442 114.503 333.444C114.505 333.445 114.507 333.445 114.509 333.446C114.511 333.447 114.512 333.447 114.513 333.447C114.515 333.448 114.515 333.448 114.514 333.448C114.512 333.447 114.51 333.446 114.505 333.444L114.871 332.514ZM114.834 332.5V331.5H70.3145V332.5V333.5H114.834V332.5ZM70.3145 332.5L70.6713 331.566L70.4975 331.499L70.1406 332.434L69.7838 333.368L69.9576 333.434L70.3145 332.5ZM70.1406 332.434L71.0739 332.793L71.4332 331.859L70.5 331.5L69.5668 331.141L69.2074 332.074L70.1406 332.434ZM70.5 331.5L69.5672 331.14L69.2069 332.072L70.1396 332.433L71.0724 332.793L71.4328 331.86L70.5 331.5ZM70.1396 332.433V331.433H70.1387V332.433V333.433H70.1396V332.433ZM70.1387 332.433L70.5025 331.501C70.5158 331.506 70.5271 331.511 70.5357 331.515C70.5445 331.519 70.552 331.522 70.5579 331.525C70.5695 331.53 70.5787 331.535 70.5843 331.537C70.5901 331.54 70.5947 331.543 70.5972 331.544C70.5998 331.545 70.6017 331.546 70.602 331.547C70.6034 331.547 70.6012 331.546 70.6006 331.546C70.5993 331.545 70.5965 331.544 70.593 331.542C70.5895 331.54 70.584 331.537 70.5772 331.534C70.5707 331.531 70.5606 331.526 70.5482 331.52L70.1348 332.431L69.7214 333.341C69.7092 333.336 69.6994 333.331 69.6932 333.328C69.6868 333.325 69.6816 333.322 69.6785 333.32C69.6736 333.318 69.6681 333.315 69.6716 333.317C69.6718 333.317 69.6806 333.322 69.6914 333.327C69.6973 333.33 69.7068 333.335 69.7187 333.34C69.7295 333.345 69.7494 333.354 69.7748 333.364L70.1387 332.433ZM70.1348 332.431L70.4983 331.499C70.4907 331.496 70.4844 331.494 70.4815 331.493C70.4799 331.492 70.4785 331.492 70.4777 331.491C70.4773 331.491 70.4769 331.491 70.4767 331.491C70.4763 331.491 70.4764 331.491 70.4763 331.491C70.4758 331.491 70.4774 331.491 70.4796 331.492C70.482 331.493 70.4861 331.494 70.4913 331.496L70.127 332.428L69.7626 333.359C69.7692 333.362 69.7747 333.364 69.7784 333.365C69.7821 333.366 69.7851 333.368 69.7859 333.368C69.7877 333.368 69.7861 333.368 69.7845 333.367C69.7829 333.367 69.7778 333.365 69.7712 333.362L70.1348 332.431ZM70.127 332.428L70.4952 331.498C70.501 331.5 70.5051 331.502 70.5062 331.502C70.5073 331.503 70.5077 331.503 70.5057 331.502C70.5045 331.502 70.5009 331.5 70.4973 331.499C70.4935 331.497 70.4884 331.495 70.4826 331.493L70.1035 332.418L69.7244 333.343C69.7228 333.343 69.7215 333.342 69.727 333.344C69.7289 333.345 69.7331 333.347 69.7378 333.349C69.7424 333.351 69.7498 333.354 69.7587 333.357L70.127 332.428ZM70.1035 332.418L70.4814 331.492C70.4684 331.487 70.4497 331.479 70.4268 331.469L70.0293 332.387L69.6318 333.304C69.6694 333.321 69.7013 333.334 69.7257 333.344L70.1035 332.418ZM70.0293 332.387L70.427 331.469C70.3757 331.447 70.306 331.416 70.2205 331.374L69.7812 332.272L69.342 333.171C69.4624 333.23 69.5612 333.274 69.6316 333.304L70.0293 332.387ZM69.7812 332.272L70.2206 331.374C70.0431 331.287 69.7887 331.152 69.4841 330.961L68.9521 331.808L68.4202 332.654C68.79 332.887 69.1067 333.056 69.3419 333.171L69.7812 332.272ZM68.9521 331.808L69.4842 330.961C68.875 330.578 68.0626 329.969 67.2504 329.063L66.5059 329.73L65.7613 330.398C66.718 331.465 67.6811 332.19 68.4201 332.654L68.9521 331.808ZM66.5059 329.73L67.2505 329.063C65.6256 327.25 64.001 324.25 64.001 319.5H63.001H62.001C62.001 324.756 63.8165 328.229 65.7613 330.398L66.5059 329.73ZM63.001 319.5H64.001C64.001 314.75 65.6256 311.75 67.2505 309.937L66.5059 309.27L65.7613 308.602C63.8165 310.771 62.001 314.244 62.001 319.5H63.001ZM66.5059 309.27L67.2504 309.937C68.0626 309.031 68.875 308.422 69.4842 308.039L68.9521 307.192L68.4201 306.346C67.6811 306.81 66.718 307.535 65.7613 308.602L66.5059 309.27ZM68.9521 307.192L69.4841 308.039C69.7887 307.848 70.0431 307.713 70.2206 307.626L69.7812 306.728L69.3419 305.829C69.1067 305.944 68.79 306.113 68.4202 306.346L68.9521 307.192ZM69.7812 306.728L70.2205 307.626C70.306 307.584 70.3757 307.553 70.427 307.531L70.0293 306.613L69.6316 305.696C69.5612 305.726 69.4624 305.77 69.342 305.829L69.7812 306.728ZM70.0293 306.613L70.4268 307.531C70.4497 307.521 70.4684 307.513 70.4814 307.508L70.1035 306.582L69.7257 305.656C69.7013 305.666 69.6694 305.679 69.6318 305.696L70.0293 306.613ZM70.1035 306.582L70.4826 307.507C70.4884 307.505 70.4935 307.503 70.4973 307.501C70.5009 307.5 70.5045 307.498 70.5057 307.498C70.5077 307.497 70.5073 307.497 70.5062 307.498C70.5051 307.498 70.501 307.5 70.4952 307.502L70.127 306.572L69.7587 305.643C69.7498 305.646 69.7424 305.649 69.7378 305.651C69.7331 305.653 69.7289 305.655 69.727 305.656C69.7215 305.658 69.7228 305.657 69.7244 305.657L70.1035 306.582ZM70.127 306.572L70.4913 307.504C70.4861 307.506 70.482 307.507 70.4796 307.508C70.4774 307.509 70.4758 307.509 70.4763 307.509C70.4764 307.509 70.4763 307.509 70.4767 307.509C70.4769 307.509 70.4773 307.509 70.4777 307.509C70.4785 307.508 70.4799 307.508 70.4815 307.507C70.4844 307.506 70.4907 307.504 70.4983 307.501L70.1348 306.569L69.7712 305.638C69.7778 305.635 69.7829 305.633 69.7845 305.633C69.7861 305.632 69.7877 305.632 69.7859 305.632C69.7851 305.632 69.7821 305.634 69.7784 305.635C69.7747 305.636 69.7692 305.638 69.7626 305.641L70.127 306.572ZM70.1348 306.569L70.5482 307.48C70.5606 307.474 70.5707 307.469 70.5772 307.466C70.584 307.463 70.5895 307.46 70.593 307.458C70.5965 307.456 70.5993 307.455 70.6006 307.454C70.6012 307.454 70.6034 307.453 70.602 307.453C70.6017 307.454 70.5998 307.455 70.5972 307.456C70.5947 307.457 70.5901 307.46 70.5843 307.463C70.5787 307.465 70.5695 307.47 70.5579 307.475C70.552 307.478 70.5445 307.481 70.5357 307.485C70.5271 307.489 70.5158 307.494 70.5025 307.499L70.1387 306.567L69.7748 305.636C69.7494 305.646 69.7295 305.655 69.7187 305.66C69.7068 305.665 69.6973 305.67 69.6914 305.673C69.6806 305.678 69.6718 305.683 69.6716 305.683C69.6681 305.685 69.6736 305.682 69.6785 305.68C69.6816 305.678 69.6868 305.675 69.6932 305.672C69.6994 305.669 69.7092 305.664 69.7214 305.659L70.1348 306.569ZM70.1387 306.567V307.567H70.1396V306.567V305.567H70.1387V306.567ZM70.1396 306.567L69.2909 307.096C69.2663 307.057 69.25 307.024 69.2444 307.013C69.2369 306.998 69.2315 306.986 69.2287 306.98C69.2231 306.967 69.2192 306.958 69.2184 306.956C69.2164 306.951 69.2159 306.95 69.2187 306.957C69.2238 306.97 69.2342 306.996 69.2545 307.049C69.2949 307.153 69.3709 307.349 69.514 307.721L70.4473 307.362L71.3806 307.003C71.2374 306.631 71.1605 306.432 71.119 306.325C71.0985 306.272 71.0858 306.24 71.0777 306.219C71.074 306.21 71.0695 306.199 71.0649 306.188C71.0628 306.183 71.0581 306.171 71.0518 306.158C71.0487 306.151 71.043 306.138 71.0354 306.123C71.0295 306.111 71.0131 306.078 70.9884 306.039L70.1396 306.567ZM70.4473 307.362L71.3804 307.003L71.0738 306.207L70.1406 306.566L69.2075 306.926L69.5141 307.722L70.4473 307.362ZM70.1406 306.566L70.4975 307.501L70.6713 307.434L70.3145 306.5L69.9576 305.566L69.7838 305.632L70.1406 306.566ZM70.3145 306.5V307.5H133.953V306.5V305.5H70.3145V306.5ZM133.953 306.5L134.053 307.495C134.051 307.495 134.05 307.495 134.049 307.495C134.048 307.495 134.048 307.495 134.048 307.496C134.048 307.496 134.047 307.496 134.047 307.496C134.047 307.496 134.047 307.496 134.047 307.496C134.047 307.496 134.047 307.496 134.047 307.496C134.047 307.496 134.048 307.496 134.048 307.496C134.048 307.495 134.048 307.495 134.049 307.495C134.049 307.495 134.051 307.495 134.052 307.495C134.057 307.495 134.07 307.494 134.085 307.492L133.974 306.498L133.862 305.504C133.866 305.504 133.87 305.503 133.871 305.503C133.873 305.503 133.874 305.503 133.873 305.503C133.873 305.503 133.873 305.503 133.872 305.503C133.871 305.503 133.869 305.503 133.868 305.504C133.865 305.504 133.86 305.504 133.853 305.505L133.953 306.5ZM133.974 306.498L134.086 307.492C134.141 307.485 134.222 307.475 134.322 307.458L134.16 306.472L133.998 305.485C133.931 305.496 133.884 305.502 133.862 305.504L133.974 306.498ZM134.16 306.472L134.322 307.458C134.526 307.425 134.82 307.366 135.172 307.262L134.89 306.303L134.607 305.343C134.346 305.42 134.133 305.463 133.998 305.485L134.16 306.472ZM134.89 306.303L135.172 307.262C135.875 307.055 136.813 306.672 137.75 305.969L137.15 305.169L136.55 304.369C135.845 304.898 135.136 305.188 134.607 305.343L134.89 306.303ZM137.15 305.169L137.75 305.969C139.625 304.563 141.5 301.875 141.5 296.75H140.5H139.5C139.5 301.313 137.87 303.379 136.55 304.369L137.15 305.169ZM140.5 296.75H141.5C141.5 291.625 139.625 288.937 137.75 287.531L137.15 288.331L136.55 289.131C137.87 290.121 139.5 292.187 139.5 296.75H140.5ZM137.15 288.331L137.75 287.531C136.813 286.828 135.875 286.445 135.172 286.238L134.89 287.197L134.607 288.157C135.136 288.312 135.845 288.602 136.55 289.131L137.15 288.331ZM134.89 287.197L135.172 286.238C134.82 286.134 134.526 286.075 134.322 286.042L134.16 287.028L133.998 288.015C134.133 288.037 134.346 288.08 134.607 288.157L134.89 287.197ZM134.16 287.028L134.322 286.042C134.222 286.025 134.141 286.015 134.086 286.008L133.974 287.002L133.862 287.996C133.884 287.998 133.931 288.004 133.998 288.015L134.16 287.028ZM133.974 287.002L134.085 286.008C134.074 286.007 134.064 286.006 134.059 286.006C134.058 286.005 134.057 286.005 134.056 286.005C134.055 286.005 134.054 286.005 134.054 286.005C134.053 286.005 134.054 286.005 134.056 286.005L133.954 287L133.853 287.995C133.857 287.995 133.861 287.996 133.863 287.996C133.864 287.996 133.865 287.996 133.866 287.996C133.866 287.996 133.867 287.996 133.867 287.996C133.869 287.996 133.867 287.996 133.862 287.996L133.974 287.002ZM133.954 287V286H50.3379V287V288H133.954V287ZM50.3379 287L50.6559 286.052L50.5016 286L50.1836 286.948L49.8656 287.896L50.0199 287.948L50.3379 287ZM50.1836 286.948L51.1322 287.265L51.4486 286.317L50.5 286L49.5514 285.683L49.235 286.632L50.1836 286.948ZM50.5 286L49.5513 285.684C49.4026 286.13 49.3239 286.366 49.2822 286.49C49.2613 286.552 49.2502 286.585 49.2446 286.602C49.2415 286.611 49.2412 286.611 49.2422 286.609C49.2425 286.608 49.2452 286.6 49.2492 286.59C49.2512 286.584 49.2554 286.574 49.2612 286.56C49.2652 286.55 49.2791 286.517 49.3008 286.477L50.1826 286.948L51.0644 287.42C51.0862 287.379 51.1003 287.346 51.1045 287.336C51.1104 287.322 51.1149 287.31 51.1172 287.304C51.1218 287.292 51.1253 287.282 51.1268 287.278C51.1303 287.268 51.134 287.257 51.1375 287.247C51.145 287.225 51.1575 287.188 51.1785 287.126C51.2207 286.999 51.2999 286.762 51.4487 286.316L50.5 286ZM50.1826 286.948V285.948H50.1816V286.948V287.948H50.1826V286.948ZM50.1816 286.948L50.4979 286L50.4861 285.996L50.1699 286.944L49.8537 287.893L49.8654 287.897L50.1816 286.948ZM50.1699 286.944L50.4942 285.998C50.4993 286 50.5028 286.001 50.5034 286.002C50.5041 286.002 50.5042 286.002 50.502 286.001C50.499 286 50.4895 285.996 50.4789 285.993L50.1455 286.936L49.8121 287.878C49.8113 287.878 49.8108 287.878 49.816 287.88C49.8179 287.88 49.8219 287.882 49.8262 287.883C49.8305 287.885 49.8374 287.887 49.8456 287.89L50.1699 286.944ZM50.1455 286.936L50.4787 285.993C50.4664 285.988 50.4453 285.981 50.4161 285.97L50.0654 286.906L49.7148 287.843C49.7518 287.857 49.785 287.869 49.8123 287.878L50.1455 286.936ZM50.0654 286.906L50.4161 285.97C50.361 285.949 50.2795 285.917 50.1774 285.874L49.7891 286.796L49.4007 287.717C49.5295 287.772 49.6362 287.813 49.7148 287.843L50.0654 286.906ZM49.7891 286.796L50.1775 285.874C49.973 285.788 49.6796 285.654 49.3279 285.464L48.8535 286.345L48.3791 287.225C48.7918 287.447 49.143 287.609 49.4007 287.717L49.7891 286.796ZM48.8535 286.345L49.328 285.464C48.6251 285.086 47.6876 284.484 46.7503 283.593L46.0615 284.318L45.3728 285.043C46.4644 286.08 47.555 286.781 48.3791 287.225L48.8535 286.345ZM46.0615 284.318L46.7503 283.593C44.8752 281.812 43.0002 278.875 43 274.25L42 274.25L41 274.25C41.0003 279.491 43.1525 282.934 45.3728 285.043L46.0615 284.318ZM42 274.25L43 274.25C42.9998 269.625 44.875 266.688 46.7503 264.907L46.0615 264.182L45.3728 263.457C43.1523 265.566 40.9997 269.009 41 274.25L42 274.25ZM46.0615 264.182L46.7502 264.907C47.6877 264.016 48.625 263.414 49.3279 263.036L48.8535 262.155L48.3791 261.275C47.5549 261.719 46.4645 262.42 45.3728 263.457L46.0615 264.182ZM48.8535 262.155L49.3279 263.036C49.6797 262.846 49.9731 262.712 50.1774 262.626L49.7891 261.704L49.4007 260.783C49.143 260.891 48.7918 261.053 48.3792 261.275L48.8535 262.155ZM49.7891 261.704L50.1773 262.626C50.2796 262.583 50.361 262.551 50.4161 262.53L50.0654 261.594L49.7148 260.657C49.6362 260.687 49.5295 260.728 49.4008 260.783L49.7891 261.704ZM50.0654 261.594L50.416 262.53C50.4455 262.519 50.4665 262.512 50.4785 262.507L50.1455 261.564L49.8125 260.622C49.7849 260.631 49.7516 260.643 49.7149 260.657L50.0654 261.594ZM50.1455 261.564L50.4789 262.507C50.4895 262.503 50.499 262.5 50.502 262.499C50.5042 262.498 50.5041 262.498 50.5034 262.498C50.5028 262.499 50.4993 262.5 50.4942 262.502L50.1699 261.556L49.8456 260.61C49.8374 260.613 49.8305 260.615 49.8262 260.617C49.8219 260.618 49.8179 260.62 49.816 260.62C49.8108 260.622 49.8113 260.622 49.8121 260.622L50.1455 261.564ZM50.1699 261.556L50.4861 262.504L50.4979 262.5L50.1816 261.552L49.8654 260.603L49.8537 260.607L50.1699 261.556ZM50.1816 261.552V262.552H50.1826V261.552V260.552H50.1816V261.552ZM50.1826 261.552L49.3013 262.024C49.2795 261.984 49.2655 261.95 49.2615 261.941C49.2556 261.927 49.2514 261.916 49.2494 261.911C49.2453 261.9 49.2426 261.893 49.2423 261.892C49.2413 261.889 49.2415 261.89 49.2446 261.899C49.2503 261.915 49.2613 261.948 49.2823 262.01C49.3239 262.134 49.4026 262.37 49.5513 262.816L50.5 262.5L51.4487 262.184C51.3 261.738 51.2208 261.501 51.1785 261.374C51.1575 261.312 51.145 261.275 51.1375 261.253C51.134 261.242 51.1302 261.232 51.1267 261.222C51.1252 261.217 51.1216 261.207 51.117 261.195C51.1147 261.189 51.1102 261.178 51.1042 261.163C51.1 261.154 51.0858 261.12 51.064 261.079L50.1826 261.552ZM50.5 262.5L51.4486 262.183L51.1322 261.235L50.1836 261.552L49.235 261.868L49.5514 262.817L50.5 262.5ZM50.1836 261.552L50.5016 262.5L50.6559 262.448L50.3379 261.5L50.0199 260.552L49.8656 260.604L50.1836 261.552ZM50.3379 261.5V262.5H183.392V261.5V260.5H50.3379V261.5ZM183.392 261.5L183.626 262.472C183.64 262.469 183.697 262.456 183.758 262.439L183.488 261.476L183.219 260.513C183.212 260.514 183.205 260.516 183.195 260.519C183.191 260.52 183.185 260.521 183.179 260.523C183.174 260.524 183.164 260.526 183.157 260.528L183.392 261.5ZM183.488 261.476L183.758 262.439C183.924 262.392 184.158 262.315 184.437 262.195L184.042 261.276L183.647 260.358C183.454 260.441 183.305 260.489 183.219 260.513L183.488 261.476ZM184.042 261.276L184.438 262.195C185 261.953 185.75 261.531 186.499 260.813L185.808 260.091L185.116 259.369C184.567 259.895 184.028 260.194 183.646 260.358L184.042 261.276ZM185.808 260.091L186.5 260.813C187.999 259.375 189.5 256.75 189.5 252H188.5H187.5C187.5 256.29 186.165 258.364 185.116 259.369L185.808 260.091ZM188.5 252H189.5C189.5 247.25 187.999 244.625 186.5 243.187L185.808 243.909L185.116 244.631C186.165 245.636 187.5 247.71 187.5 252H188.5ZM185.808 243.909L186.499 243.187C185.75 242.469 185 242.047 184.438 241.805L184.042 242.724L183.646 243.642C184.028 243.806 184.567 244.105 185.116 244.631L185.808 243.909ZM184.042 242.724L184.437 241.805C184.158 241.685 183.924 241.608 183.758 241.561L183.488 242.524L183.219 243.487C183.305 243.511 183.454 243.559 183.647 243.642L184.042 242.724ZM183.488 242.524L183.758 241.561C183.697 241.544 183.64 241.531 183.626 241.528L183.392 242.5L183.157 243.472C183.164 243.474 183.174 243.476 183.179 243.477C183.186 243.479 183.191 243.48 183.196 243.481C183.205 243.484 183.212 243.486 183.219 243.487L183.488 242.524ZM183.392 242.5V241.5H102.36V242.5V243.5H183.392V242.5ZM102.36 242.5L102.632 241.538L102.498 241.5L102.226 242.462L101.954 243.424L102.088 243.462L102.36 242.5ZM102.226 242.462L103.187 242.736L103.462 241.774L102.5 241.5L101.538 241.226L101.264 242.188L102.226 242.462ZM102.5 241.5L101.538 241.225C101.409 241.678 101.341 241.916 101.305 242.042C101.286 242.105 101.277 242.137 101.272 242.153C101.27 242.162 101.27 242.162 101.271 242.157C101.271 242.156 101.274 242.147 101.279 242.134C101.281 242.128 101.285 242.116 101.291 242.1C101.295 242.089 101.31 242.051 101.334 242.005L102.224 242.461L103.114 242.917C103.137 242.871 103.152 242.833 103.156 242.821C103.163 242.805 103.167 242.792 103.17 242.785C103.175 242.771 103.178 242.759 103.18 242.755C103.183 242.743 103.187 242.731 103.19 242.721C103.197 242.698 103.208 242.66 103.226 242.596C103.263 242.468 103.332 242.227 103.462 241.775L102.5 241.5ZM102.224 242.461V241.461H102.223V242.461V243.461H102.224V242.461ZM102.223 242.461L102.539 241.512L102.536 241.511L102.22 242.46L101.903 243.409L101.906 243.41L102.223 242.461ZM102.22 242.46L102.499 241.5C102.519 241.506 102.535 241.511 102.547 241.515C102.559 241.519 102.569 241.523 102.576 241.526C102.582 241.528 102.588 241.53 102.59 241.531C102.592 241.532 102.595 241.533 102.594 241.533C102.593 241.532 102.591 241.531 102.587 241.53C102.584 241.529 102.579 241.527 102.572 241.524C102.566 241.522 102.557 241.518 102.547 241.515C102.538 241.512 102.526 241.508 102.513 241.503L102.212 242.457L101.911 243.411C101.886 243.403 101.867 243.396 101.856 243.391C101.85 243.389 101.846 243.387 101.843 243.386C101.84 243.385 101.838 243.384 101.839 243.385C101.839 243.385 101.839 243.385 101.839 243.385C101.839 243.385 101.839 243.385 101.839 243.385C101.839 243.385 101.839 243.385 101.839 243.385C101.839 243.385 101.84 243.385 101.84 243.385C101.841 243.386 101.842 243.386 101.844 243.387C101.847 243.388 101.853 243.39 101.86 243.393C101.868 243.396 101.878 243.4 101.891 243.404C101.903 243.409 101.92 243.414 101.94 243.42L102.22 242.46ZM102.212 242.457L102.495 241.498C102.489 241.496 102.484 241.495 102.48 241.494C102.476 241.492 102.472 241.492 102.47 241.491C102.468 241.49 102.465 241.49 102.464 241.489C102.463 241.489 102.462 241.489 102.462 241.489C102.461 241.488 102.463 241.489 102.465 241.49C102.468 241.49 102.473 241.492 102.478 241.493L102.188 242.45L101.897 243.407C101.917 243.413 101.934 243.418 101.94 243.419C101.941 243.42 101.943 243.42 101.944 243.42C101.944 243.421 101.944 243.42 101.944 243.42C101.943 243.42 101.937 243.419 101.929 243.416L102.212 242.457ZM102.188 242.45L102.48 241.494C102.465 241.489 102.445 241.483 102.421 241.475L102.11 242.426L101.799 243.376C101.839 243.389 101.871 243.399 101.895 243.406L102.188 242.45ZM102.11 242.426L102.421 241.475C102.371 241.459 102.295 241.433 102.199 241.397L101.848 242.333L101.497 243.269C101.619 243.315 101.722 243.351 101.799 243.376L102.11 242.426ZM101.848 242.333L102.199 241.397C102.007 241.325 101.733 241.212 101.406 241.051L100.963 241.947L100.52 242.844C100.914 243.039 101.25 243.177 101.496 243.269L101.848 242.333ZM100.963 241.947L101.406 241.051C100.75 240.727 99.8754 240.203 99.0004 239.406L98.3271 240.146L97.6539 240.885C98.6946 241.833 99.7339 242.455 100.52 242.844L100.963 241.947ZM98.3271 240.146L99.0005 239.406C97.2503 237.812 95.5 235.125 95.5 230.75H94.5H93.5C93.5 235.738 95.5261 238.947 97.6538 240.885L98.3271 240.146ZM94.5 230.75H95.5C95.5 226.375 97.2503 223.688 99.0005 222.094L98.3271 221.354L97.6538 220.615C95.5261 222.553 93.5 225.762 93.5 230.75H94.5ZM98.3271 221.354L99.0004 222.094C99.8754 221.297 100.75 220.773 101.406 220.449L100.963 219.553L100.52 218.656C99.7339 219.045 98.6946 219.667 97.6539 220.615L98.3271 221.354ZM100.963 219.553L101.406 220.449C101.733 220.288 102.007 220.175 102.199 220.103L101.848 219.167L101.496 218.231C101.25 218.323 100.914 218.461 100.52 218.656L100.963 219.553ZM101.848 219.167L102.199 220.103C102.295 220.067 102.371 220.041 102.421 220.025L102.11 219.074L101.799 218.124C101.722 218.149 101.619 218.185 101.497 218.231L101.848 219.167ZM102.11 219.074L102.421 220.025C102.445 220.017 102.465 220.011 102.48 220.006L102.188 219.05L101.895 218.094C101.871 218.101 101.839 218.111 101.799 218.124L102.11 219.074ZM102.188 219.05L102.478 220.007C102.473 220.008 102.468 220.01 102.465 220.01C102.463 220.011 102.461 220.012 102.462 220.011C102.462 220.011 102.463 220.011 102.464 220.011C102.465 220.01 102.468 220.01 102.47 220.009C102.472 220.008 102.476 220.008 102.48 220.006C102.484 220.005 102.489 220.004 102.495 220.002L102.212 219.043L101.928 218.084C101.937 218.081 101.943 218.08 101.944 218.08C101.944 218.079 101.944 218.079 101.944 218.08C101.943 218.08 101.941 218.08 101.94 218.081C101.934 218.082 101.917 218.087 101.897 218.093L102.188 219.05ZM102.212 219.043L102.512 219.997C102.526 219.993 102.538 219.988 102.547 219.985C102.557 219.982 102.566 219.978 102.572 219.976C102.579 219.973 102.584 219.971 102.587 219.97C102.591 219.969 102.593 219.967 102.594 219.967C102.595 219.967 102.593 219.968 102.59 219.969C102.588 219.97 102.582 219.972 102.576 219.974C102.569 219.977 102.559 219.981 102.547 219.985C102.535 219.989 102.519 219.995 102.499 220L102.22 219.04L101.941 218.08C101.92 218.086 101.903 218.091 101.891 218.096C101.878 218.1 101.868 218.104 101.86 218.107C101.853 218.11 101.847 218.112 101.844 218.113C101.842 218.114 101.841 218.115 101.84 218.115C101.839 218.115 101.839 218.115 101.839 218.115C101.839 218.115 101.839 218.115 101.839 218.115C101.839 218.115 101.839 218.115 101.839 218.115C101.839 218.115 101.838 218.115 101.838 218.115C101.838 218.116 101.84 218.115 101.843 218.114C101.845 218.113 101.85 218.111 101.856 218.109C101.867 218.104 101.887 218.097 101.912 218.089L102.212 219.043ZM102.22 219.04L102.536 219.989L102.539 219.988L102.223 219.039L101.906 218.09L101.903 218.091L102.22 219.04ZM102.223 219.039V220.039H102.224V219.039V218.039H102.223V219.039ZM102.224 219.039L101.332 219.491C101.311 219.451 101.298 219.417 101.293 219.405C101.287 219.389 101.282 219.377 101.28 219.37C101.275 219.357 101.272 219.347 101.272 219.345C101.27 219.338 101.269 219.336 101.271 219.341C101.273 219.351 101.279 219.372 101.292 219.414C101.316 219.497 101.361 219.656 101.447 219.955L102.408 219.68L103.37 219.405C103.284 219.106 103.238 218.945 103.213 218.858C103.201 218.815 103.193 218.788 103.187 218.771C103.185 218.763 103.182 218.752 103.178 218.741C103.177 218.736 103.173 218.724 103.168 218.71C103.165 218.703 103.161 218.69 103.155 218.674C103.15 218.661 103.136 218.628 103.115 218.587L102.224 219.039ZM102.408 219.68L103.37 219.406L103.187 218.764L102.226 219.038L101.264 219.312L101.446 219.953L102.408 219.68ZM102.226 219.038L102.496 220.001L102.631 219.963L102.361 219L102.091 218.037L101.955 218.075L102.226 219.038ZM102.361 219V220H102.502V219V218H102.361V219ZM102.502 219L102.5 220L345 220.5L345.002 219.5L345.004 218.5L102.504 218L102.502 219ZM133.932 286.998V287.998H133.933V286.998V285.998H133.932V286.998ZM133.933 286.998H134.933V286.997H133.933H132.933V286.998H133.933ZM133.933 286.997L134.02 286.001C133.99 285.998 133.966 285.998 133.951 285.997C133.935 285.997 133.922 285.997 133.914 285.997C133.905 285.997 133.899 285.998 133.897 285.998C133.891 285.998 133.9 285.997 133.907 285.997L133.93 286.997L133.953 287.997C133.958 287.997 133.962 287.997 133.963 287.997C133.964 287.996 133.964 287.996 133.964 287.996C133.964 287.996 133.964 287.996 133.964 287.996C133.962 287.997 133.956 287.997 133.948 287.997C133.941 287.997 133.928 287.997 133.913 287.997C133.898 287.997 133.874 287.996 133.845 287.993L133.933 286.997ZM133.93 286.997L133.482 287.891L133.484 287.892L133.932 286.998L134.379 286.104L134.377 286.103L133.93 286.997ZM344.5 242.5L344.585 241.504C287.976 236.686 255.865 254.864 246.762 264.825L247.5 265.5L248.238 266.175C256.803 256.802 288.225 238.714 344.415 243.496L344.5 242.5ZM247.5 265.5L246.857 266.266C249.48 268.469 253.442 270.504 257.996 272.324C262.569 274.151 267.813 275.791 273.057 277.179C283.528 279.951 294.104 281.744 299.452 281.999L299.5 281L299.548 280.001C294.396 279.756 283.972 277.999 273.568 275.246C268.375 273.871 263.213 272.255 258.738 270.467C254.245 268.671 250.52 266.731 248.143 264.734L247.5 265.5ZM299.5 281L299.452 281.999C304.73 282.25 330.51 282.5 354.93 282.687C379.368 282.875 402.494 283 402.495 283L402.5 282L402.505 281C402.482 281 310.022 280.5 299.548 280.001L299.5 281ZM402.5 282L403.164 281.253C396.453 275.287 387.023 266.237 376.737 258.272C366.469 250.32 355.178 243.309 344.668 241.514L344.5 242.5L344.332 243.486C354.322 245.192 365.281 251.93 375.513 259.853C385.727 267.763 395.047 276.713 401.836 282.747L402.5 282Z" fill="#DBFB40"/>
<rect x="17" y="306" width="34" height="26" rx="13" fill="black" stroke="#DBFB40" stroke-width="2"/>
</svg>
